# xmcd
#
# Track frame offsets:
#	150
#	30754
#	41042
#	51950
#	78491
#	91716
#	110472
#	129708
#	147138
#	159178
#	184310
#	196635
#	221775
#	245890
#	259418
#	276153
#	296678
#	319912
#
# Disc length: 4580 seconds
#
# Revision: 0
# Processed by: cddbd v1.4PL0 Copyright (c) Steve Scherf et al.
# Submitted via: dBpowerAMP V4.0
#
DISCID=0a11e212
DTITLE=Yardbirds - Five Live Yardbirds
DYEAR=1900
DGENRE=Blues
TTITLE0=Smokestack Lighting (Live Version)
TTITLE1=Let It Rock
TTITLE2=Honey In Your Hips
TTITLE3=I Wish You Would
TTITLE4=You Can't Judge A Book By Its Cover
TTITLE5=Who Do You Love
TTITLE6=I Wish You Would (Demo Version)
TTITLE7=To Much Monkey Business
TTITLE8=Got Love If You Want It
TTITLE9=Smokestack Lighting (Live Version 2)
TTITLE10=Good Morning Little Schoolgirl
TTITLE11=Respectable
TTITLE12=Five Long Years
TTITLE13=Pretty Girl
TTITLE14=Louise
TTITLE15=I'm A Man
TTITLE16=Here 'Tis
TTITLE17=Here 'Tis (Alternate Version)
EXTD=
EXTT0=
EXTT1=
EXTT2=
EXTT3=
EXTT4=
EXTT5=
EXTT6=
EXTT7=
EXTT8=
EXTT9=
EXTT10=
EXTT11=
EXTT12=
EXTT13=
EXTT14=
EXTT15=
EXTT16=
EXTT17=
PLAYORDER=
